<svg xmlns="http://www.w3.org/2000/svg" version="1.1" xmlnsXlink="http://www.w3.org/1999/xlink" xmlnsSvgjs="http://svgjs.dev/svgjs" width="1440" height="1080" preserveAspectRatio="none" viewBox="0 0 1440 1080"><g mask="url(&quot;#SvgjsMask1351&quot;)" fill="none"><rect width="1440" height="1080" x="0" y="0" fill="rgba(48, 34, 75, 1)"></rect><path d="M 0,24 C 144,63.4 432,208.8 720,221 C 1008,233.2 1296,112.2 1440,85L1440 1080L0 1080z" fill="rgba(73, 53, 113, 1)"></path><path d="M 0,421 C 144,458 432,592.6 720,606 C 1008,619.4 1296,511.6 1440,488L1440 1080L0 1080z" fill="rgba(108, 88, 146, 1)"></path><path d="M 0,1009 C 144,978.2 432,855.8 720,855 C 1008,854.2 1296,975 1440,1005L1440 1080L0 1080z" fill="rgba(73, 53, 113, 1)"></path></g><defs><mask id="SvgjsMask1351"><rect width="1440" height="1080" fill="#ffffff"></rect></mask></defs></svg>