<svg xmlns="http://www.w3.org/2000/svg" version="1.1" xmlnsXlink="http://www.w3.org/1999/xlink" xmlnsSvgjs="http://svgjs.dev/svgjs" width="1440" height="1080" preserveAspectRatio="none" viewBox="0 0 1440 1080"><g mask="url(&quot;#SvgjsMask1362&quot;)" fill="none"><rect width="1440" height="1080" x="0" y="0" fill="rgba(250, 232, 221, 1)"></rect><path d="M 0,105 C 144,149.8 432,329.4 720,329 C 1008,328.6 1296,148.2 1440,103L1440 1080L0 1080z" fill="rgba(243, 220, 206, 1)"></path><path d="M 0,583 C 144,546 432,371.6 720,398 C 1008,424.4 1296,651.6 1440,715L1440 1080L0 1080z" fill="rgba(250, 232, 221, 1)"></path><path d="M 0,864 C 144,881 432,959.2 720,949 C 1008,938.8 1296,840.2 1440,813L1440 1080L0 1080z" fill="rgba(243, 220, 206, 1)"></path></g><defs><mask id="SvgjsMask1362"><rect width="1440" height="1080" fill="#ffffff"></rect></mask></defs></svg>