<svg xmlns="http://www.w3.org/2000/svg" version="1.1" xmlnsXlink="http://www.w3.org/1999/xlink" xmlnsSvgjs="http://svgjs.dev/svgjs" width="1440" height="1080" preserveAspectRatio="none" viewBox="0 0 1440 1080"><g mask="url(&quot;#SvgjsMask1401&quot;)" fill="none"><rect width="1440" height="1080" x="0" y="0" fill="rgba(243, 220, 206, 1)"></rect><path d="M 0,393 C 96,334.8 288,89 480,102 C 672,115 768,433 960,458 C 1152,483 1344,273.2 1440,227L1440 1080L0 1080z" fill="rgba(250, 232, 221, 1)"></path><path d="M 0,827 C 72,820.6 216,776.6 360,795 C 504,813.4 576,945.6 720,919 C 864,892.4 936,634.2 1080,662 C 1224,689.8 1368,978.8 1440,1058L1440 1080L0 1080z" fill="rgba(243, 220, 206, 1)"></path></g><defs><mask id="SvgjsMask1401"><rect width="1440" height="1080" fill="#ffffff"></rect></mask></defs></svg>