<svg xmlns="http://www.w3.org/2000/svg" version="1.1" xmlnsXlink="http://www.w3.org/1999/xlink" xmlnsSvgjs="http://svgjs.dev/svgjs" width="1440" height="1080" preserveAspectRatio="none" viewBox="0 0 1440 1080"><g mask="url(&quot;#SvgjsMask1197&quot;)" fill="none"><rect width="1440" height="1080" x="0" y="0" fill="rgba(225, 199, 183, 1)"></rect><path d="M 0,398 C 96,334 288,52.4 480,78 C 672,103.6 768,502.2 960,526 C 1152,549.8 1344,262.8 1440,197L1440 1080L0 1080z" fill="rgba(243, 220, 206, 1)"></path><path d="M 0,1050 C 72,983.2 216,721.8 360,716 C 504,710.2 576,1011.6 720,1021 C 864,1030.4 936,797.6 1080,763 C 1224,728.4 1368,831 1440,848L1440 1080L0 1080z" fill="rgba(250, 232, 221, 1)"></path></g><defs><mask id="SvgjsMask1197"><rect width="1440" height="1080" fill="#ffffff"></rect></mask></defs></svg>