<svg xmlns="http://www.w3.org/2000/svg" version="1.1" xmlnsXlink="http://www.w3.org/1999/xlink" xmlnsSvgjs="http://svgjs.dev/svgjs" width="1440" height="1080" preserveAspectRatio="none" viewBox="0 0 1440 1080"><g mask="url(&quot;#SvgjsMask1413&quot;)" fill="none"><rect width="1440" height="1080" x="0" y="0" fill="rgba(243, 220, 206, 1)"></rect><path d="M 0,24 C 72,65 216,209 360,229 C 504,249 576,98.4 720,124 C 864,149.6 936,351.2 1080,357 C 1224,362.8 1368,193.8 1440,153L1440 1080L0 1080z" fill="rgba(247, 225, 212, 1)"></path><path d="M 0,414 C 96,451 288,587 480,599 C 672,611 768,476.2 960,474 C 1152,471.8 1344,565.2 1440,588L1440 1080L0 1080z" fill="rgba(250, 232, 221, 1)"></path><path d="M 0,1018 C 72,990.2 216,895.2 360,879 C 504,862.8 576,949.2 720,937 C 864,924.8 936,791.6 1080,818 C 1224,844.4 1368,1018.8 1440,1069L1440 1080L0 1080z" fill="rgba(247, 225, 212, 1)"></path></g><defs><mask id="SvgjsMask1413"><rect width="1440" height="1080" fill="#ffffff"></rect></mask></defs></svg>