<svg xmlns="http://www.w3.org/2000/svg" version="1.1" xmlnsXlink="http://www.w3.org/1999/xlink" xmlnsSvgjs="http://svgjs.dev/svgjs" width="1440" height="1080" preserveAspectRatio="none" viewBox="0 0 1440 1080"><g mask="url(&quot;#SvgjsMask1034&quot;)" fill="none"><rect width="1440" height="1080" x="0" y="0" fill="rgba(243, 220, 206, 1)"></rect><path d="M 0,116 C 144,138.6 432,218 720,229 C 1008,240 1296,182.6 1440,171L1440 1080L0 1080z" fill="rgba(247, 225, 212, 1)"></path><path d="M 0,546 C 144,530.6 432,434.6 720,469 C 1008,503.4 1296,668.2 1440,718L1440 1080L0 1080z" fill="rgba(243, 220, 206, 1)"></path><path d="M 0,1031 C 96,1001.4 288,894.6 480,883 C 672,871.4 768,981.2 960,973 C 1152,964.8 1344,868.2 1440,842L1440 1080L0 1080z" fill="rgba(247, 225, 212, 1)"></path></g><defs><mask id="SvgjsMask1034"><rect width="1440" height="1080" fill="#ffffff"></rect></mask></defs></svg>